name rise30.8019peak61.5557fall86.2505.mot
datacolumns 19
datarows 36
range 23.80324500000000 23.86159400000000
endheader
time	ground_force1_vx	ground_force1_vy	ground_force1_vz	ground_force1_px	ground_force1_py	ground_force1_pz	ground_force2_vx	ground_force2_vy	ground_force2_vz	ground_force2_px	ground_force2_py	ground_force2_pz	ground_torque1_x	ground_torque1_y	ground_torque1_z	ground_torque2_x	ground_torque2_y	ground_torque2_z	
23.80324500000000	40.63941800000000	710.71359299999995	44.46870900000000	0.24412800000000	0.00000000000000	0.10052900000000	0.00000000000000	0.00000000000000	0.00000000000000	0.00000000000000	0.00000000000000	0.00000000000000	0.00000000000000	13.92657500000000	0.00000000000000	0.00000000000000	0.00000000000000	0.00000000000000	
23.80491600000000	40.14316100000000	713.02469900000006	44.63985000000000	0.24309100000000	0.00000000000000	0.10055200000000	0.00000000000000	0.00000000000000	0.00000000000000	0.00000000000000	0.00000000000000	0.00000000000000	0.00000000000000	13.99804100000000	0.00000000000000	0.00000000000000	0.00000000000000	0.00000000000000	
23.80658100000000	39.64988000000000	715.22505100000001	44.80709800000000	0.24204600000000	0.00000000000000	0.10057700000000	0.00000000000000	0.00000000000000	0.00000000000000	0.00000000000000	0.00000000000000	0.00000000000000	0.00000000000000	14.06702100000000	0.00000000000000	0.00000000000000	0.00000000000000	0.00000000000000	
23.80824700000000	39.15948700000000	717.31425100000001	44.96988700000000	0.24099000000000	0.00000000000000	0.10060200000000	0.00000000000000	0.00000000000000	0.00000000000000	0.00000000000000	0.00000000000000	0.00000000000000	0.00000000000000	14.13329100000000	0.00000000000000	0.00000000000000	0.00000000000000	0.00000000000000	
23.80991100000000	38.67187400000000	719.29202799999996	45.12763100000000	0.23992500000000	0.00000000000000	0.10062900000000	0.00000000000000	0.00000000000000	0.00000000000000	0.00000000000000	0.00000000000000	0.00000000000000	0.00000000000000	14.19662100000000	0.00000000000000	0.00000000000000	0.00000000000000	0.00000000000000	
23.81157600000000	38.18691600000000	721.15824099999998	45.27972600000000	0.23884800000000	0.00000000000000	0.10065600000000	0.00000000000000	0.00000000000000	0.00000000000000	0.00000000000000	0.00000000000000	0.00000000000000	0.00000000000000	14.25678200000000	0.00000000000000	0.00000000000000	0.00000000000000	0.00000000000000	
23.81324800000000	37.70447700000000	722.91287999999997	45.42555500000000	0.23776000000000	0.00000000000000	0.10068500000000	0.00000000000000	0.00000000000000	0.00000000000000	0.00000000000000	0.00000000000000	0.00000000000000	0.00000000000000	14.31354700000000	0.00000000000000	0.00000000000000	0.00000000000000	0.00000000000000	
23.81491200000000	37.22441000000000	724.55607299999997	45.56449500000000	0.23666100000000	0.00000000000000	0.10071400000000	0.00000000000000	0.00000000000000	0.00000000000000	0.00000000000000	0.00000000000000	0.00000000000000	0.00000000000000	14.36668900000000	0.00000000000000	0.00000000000000	0.00000000000000	0.00000000000000	
23.81657600000000	36.74656200000000	726.08808399999998	45.69591900000000	0.23555000000000	0.00000000000000	0.10074300000000	0.00000000000000	0.00000000000000	0.00000000000000	0.00000000000000	0.00000000000000	0.00000000000000	0.00000000000000	14.41599100000000	0.00000000000000	0.00000000000000	0.00000000000000	0.00000000000000	
23.81824900000000	36.27077300000000	727.50931600000001	45.81920400000000	0.23442700000000	0.00000000000000	0.10077400000000	0.00000000000000	0.00000000000000	0.00000000000000	0.00000000000000	0.00000000000000	0.00000000000000	0.00000000000000	14.46123800000000	0.00000000000000	0.00000000000000	0.00000000000000	0.00000000000000	
23.81991600000000	35.79688400000000	728.82031400000005	45.93373400000000	0.23329100000000	0.00000000000000	0.10080500000000	0.00000000000000	0.00000000000000	0.00000000000000	0.00000000000000	0.00000000000000	0.00000000000000	0.00000000000000	14.50223000000000	0.00000000000000	0.00000000000000	0.00000000000000	0.00000000000000	
23.82157800000000	35.32473300000000	730.02176299999996	46.03890600000000	0.23214500000000	0.00000000000000	0.10083600000000	0.00000000000000	0.00000000000000	0.00000000000000	0.00000000000000	0.00000000000000	0.00000000000000	0.00000000000000	14.53877200000000	0.00000000000000	0.00000000000000	0.00000000000000	0.00000000000000	
23.82324600000000	34.85416300000000	731.11449100000004	46.13413200000000	0.23098600000000	0.00000000000000	0.10086700000000	0.00000000000000	0.00000000000000	0.00000000000000	0.00000000000000	0.00000000000000	0.00000000000000	0.00000000000000	14.57068700000000	0.00000000000000	0.00000000000000	0.00000000000000	0.00000000000000	
23.82491500000000	34.38502000000000	732.09947099999999	46.21884700000000	0.22981600000000	0.00000000000000	0.10089900000000	0.00000000000000	0.00000000000000	0.00000000000000	0.00000000000000	0.00000000000000	0.00000000000000	0.00000000000000	14.59780800000000	0.00000000000000	0.00000000000000	0.00000000000000	0.00000000000000	
23.82657700000000	33.91715600000000	732.97781499999996	46.29251000000000	0.22863500000000	0.00000000000000	0.10093100000000	0.00000000000000	0.00000000000000	0.00000000000000	0.00000000000000	0.00000000000000	0.00000000000000	0.00000000000000	14.61998600000000	0.00000000000000	0.00000000000000	0.00000000000000	0.00000000000000	
23.82824800000000	33.45043000000000	733.75077999999996	46.35461100000000	0.22744300000000	0.00000000000000	0.10096200000000	0.00000000000000	0.00000000000000	0.00000000000000	0.00000000000000	0.00000000000000	0.00000000000000	0.00000000000000	14.63708700000000	0.00000000000000	0.00000000000000	0.00000000000000	0.00000000000000	
23.82991800000000	32.98471200000000	734.41976099999999	46.40467200000000	0.22624100000000	0.00000000000000	0.10099400000000	0.00000000000000	0.00000000000000	0.00000000000000	0.00000000000000	0.00000000000000	0.00000000000000	0.00000000000000	14.64899800000000	0.00000000000000	0.00000000000000	0.00000000000000	0.00000000000000	
23.83158200000000	32.51988000000000	734.98629400000004	46.44225500000000	0.22502900000000	0.00000000000000	0.10102500000000	0.00000000000000	0.00000000000000	0.00000000000000	0.00000000000000	0.00000000000000	0.00000000000000	0.00000000000000	14.65562300000000	0.00000000000000	0.00000000000000	0.00000000000000	0.00000000000000	
23.83324600000000	32.05582500000000	735.45205299999998	46.46696100000000	0.22380900000000	0.00000000000000	0.10105600000000	0.00000000000000	0.00000000000000	0.00000000000000	0.00000000000000	0.00000000000000	0.00000000000000	0.00000000000000	14.65688500000000	0.00000000000000	0.00000000000000	0.00000000000000	0.00000000000000	
23.83491000000000	31.59244900000000	735.81884600000001	46.47843300000000	0.22258000000000	0.00000000000000	0.10108600000000	0.00000000000000	0.00000000000000	0.00000000000000	0.00000000000000	0.00000000000000	0.00000000000000	0.00000000000000	14.65273100000000	0.00000000000000	0.00000000000000	0.00000000000000	0.00000000000000	
23.83658300000000	31.12966600000000	736.08861500000000	46.47636500000000	0.22134400000000	0.00000000000000	0.10111500000000	0.00000000000000	0.00000000000000	0.00000000000000	0.00000000000000	0.00000000000000	0.00000000000000	0.00000000000000	14.64312500000000	0.00000000000000	0.00000000000000	0.00000000000000	0.00000000000000	
23.83824500000000	30.66740400000000	736.26343099999997	46.46049600000000	0.22010100000000	0.00000000000000	0.10114400000000	0.00000000000000	0.00000000000000	0.00000000000000	0.00000000000000	0.00000000000000	0.00000000000000	0.00000000000000	14.62805700000000	0.00000000000000	0.00000000000000	0.00000000000000	0.00000000000000	
23.83990900000000	30.20560600000000	736.34548900000004	46.43061800000000	0.21885300000000	0.00000000000000	0.10117200000000	0.00000000000000	0.00000000000000	0.00000000000000	0.00000000000000	0.00000000000000	0.00000000000000	0.00000000000000	14.60753500000000	0.00000000000000	0.00000000000000	0.00000000000000	0.00000000000000	
23.84157800000000	29.74422500000000	736.33711000000005	46.38657600000000	0.21760000000000	0.00000000000000	0.10119900000000	0.00000000000000	0.00000000000000	0.00000000000000	0.00000000000000	0.00000000000000	0.00000000000000	0.00000000000000	14.58159000000000	0.00000000000000	0.00000000000000	0.00000000000000	0.00000000000000	
23.84324400000000	29.28322900000000	736.24072799999999	46.32826900000000	0.21634400000000	0.00000000000000	0.10122500000000	0.00000000000000	0.00000000000000	0.00000000000000	0.00000000000000	0.00000000000000	0.00000000000000	0.00000000000000	14.55027600000000	0.00000000000000	0.00000000000000	0.00000000000000	0.00000000000000	
23.84491300000000	28.82260000000000	736.05889400000001	46.25565200000000	0.21508500000000	0.00000000000000	0.10125000000000	0.00000000000000	0.00000000000000	0.00000000000000	0.00000000000000	0.00000000000000	0.00000000000000	0.00000000000000	14.51366600000000	0.00000000000000	0.00000000000000	0.00000000000000	0.00000000000000	
23.84658000000000	28.36233200000000	735.79426599999999	46.16873800000000	0.21382400000000	0.00000000000000	0.10127400000000	0.00000000000000	0.00000000000000	0.00000000000000	0.00000000000000	0.00000000000000	0.00000000000000	0.00000000000000	14.47185600000000	0.00000000000000	0.00000000000000	0.00000000000000	0.00000000000000	
23.84824500000000	27.90243100000000	735.44960300000002	46.06759300000000	0.21256200000000	0.00000000000000	0.10129600000000	0.00000000000000	0.00000000000000	0.00000000000000	0.00000000000000	0.00000000000000	0.00000000000000	0.00000000000000	14.42496100000000	0.00000000000000	0.00000000000000	0.00000000000000	0.00000000000000	
23.84990900000000	27.44291600000000	735.02776300000005	45.95234400000000	0.21130100000000	0.00000000000000	0.10131600000000	0.00000000000000	0.00000000000000	0.00000000000000	0.00000000000000	0.00000000000000	0.00000000000000	0.00000000000000	14.37311600000000	0.00000000000000	0.00000000000000	0.00000000000000	0.00000000000000	
23.85157800000000	26.98381400000000	734.53169300000002	45.82317200000000	0.21004100000000	0.00000000000000	0.10133500000000	0.00000000000000	0.00000000000000	0.00000000000000	0.00000000000000	0.00000000000000	0.00000000000000	0.00000000000000	14.31647500000000	0.00000000000000	0.00000000000000	0.00000000000000	0.00000000000000	
23.85324200000000	26.52516500000000	733.96442800000000	45.68031400000000	0.20878400000000	0.00000000000000	0.10135300000000	0.00000000000000	0.00000000000000	0.00000000000000	0.00000000000000	0.00000000000000	0.00000000000000	0.00000000000000	14.25520900000000	0.00000000000000	0.00000000000000	0.00000000000000	0.00000000000000	
23.85491300000000	26.06701800000000	733.32907799999998	45.52406200000000	0.20753100000000	0.00000000000000	0.10136800000000	0.00000000000000	0.00000000000000	0.00000000000000	0.00000000000000	0.00000000000000	0.00000000000000	0.00000000000000	14.18950800000000	0.00000000000000	0.00000000000000	0.00000000000000	0.00000000000000	
23.85658300000000	25.60942700000000	732.62882400000001	45.35476200000000	0.20628200000000	0.00000000000000	0.10138200000000	0.00000000000000	0.00000000000000	0.00000000000000	0.00000000000000	0.00000000000000	0.00000000000000	0.00000000000000	14.11957500000000	0.00000000000000	0.00000000000000	0.00000000000000	0.00000000000000	
23.85825100000000	25.15245700000000	731.86691399999995	45.17281100000000	0.20503800000000	0.00000000000000	0.10139500000000	0.00000000000000	0.00000000000000	0.00000000000000	0.00000000000000	0.00000000000000	0.00000000000000	0.00000000000000	14.04563100000000	0.00000000000000	0.00000000000000	0.00000000000000	0.00000000000000	
23.85990900000000	24.69617600000000	731.04665199999999	44.97865500000000	0.20380100000000	0.00000000000000	0.10140500000000	0.00000000000000	0.00000000000000	0.00000000000000	0.00000000000000	0.00000000000000	0.00000000000000	0.00000000000000	13.96790700000000	0.00000000000000	0.00000000000000	0.00000000000000	0.00000000000000	
23.86159400000000	24.24065700000000	730.17138899999998	44.77278800000000	0.20257200000000	0.00000000000000	0.10141300000000	0.00000000000000	0.00000000000000	0.00000000000000	0.00000000000000	0.00000000000000	0.00000000000000	0.00000000000000	13.88664900000000	0.00000000000000	0.00000000000000	0.00000000000000	0.00000000000000	
